<svg width="600" height="450" viewBox="0 0 600 450" fill="none" xmlns="http://www.w3.org/2000/svg">
<rect width="600" height="450" rx="60" fill="#DFD7BF"/>
<path fill-rule="evenodd" clip-rule="evenodd" d="M294 159.5C248.437 159.5 211.5 196.437 211.5 242C211.5 287.563 248.437 324.5 294 324.5C339.563 324.5 376.5 287.563 376.5 242C376.5 196.437 339.563 159.5 294 159.5ZM184 242C184 181.249 233.249 132 294 132C354.751 132 404 181.249 404 242C404 302.751 354.751 352 294 352C233.249 352 184 302.751 184 242Z" fill="#3F2305"/>
<path fill-rule="evenodd" clip-rule="evenodd" d="M268.047 74.3846C259.371 74.3846 251.202 78.4429 245.997 85.3385L229.459 107.246C219.049 121.037 202.71 129.154 185.359 129.154H150.906C128.073 129.154 109.562 147.545 109.562 170.231V334.538C109.562 357.225 128.073 375.615 150.906 375.615H454.094C476.927 375.615 495.438 357.225 495.438 334.538V170.231C495.438 147.545 476.927 129.154 454.094 129.154H419.641C402.29 129.154 385.951 121.037 375.541 107.246L359.003 85.3385C353.798 78.4429 345.629 74.3846 336.953 74.3846H268.047ZM223.947 68.9077C234.357 55.1165 250.696 47 268.047 47H336.953C354.304 47 370.643 55.1165 381.053 68.9077L397.591 90.8154C402.796 97.711 410.965 101.769 419.641 101.769H454.094C492.15 101.769 523 132.42 523 170.231V334.538C523 372.349 492.15 403 454.094 403H150.906C112.85 403 82 372.349 82 334.538V170.231C82 132.421 112.85 101.769 150.906 101.769H185.359C194.035 101.769 202.204 97.711 207.409 90.8154L223.947 68.9077Z" fill="#3F2305"/>
</svg>
